<svg width="24" height="19" viewBox="0 0 24 19" fill="none" xmlns="http://www.w3.org/2000/svg">
<path d="M0 17.0653C0 16.2084 0.651223 15.5139 1.45455 15.5139H14.5455C15.3488 15.5139 16 16.2084 16 17.0653C16 17.9221 15.3488 18.6167 14.5455 18.6167H1.45455C0.651221 18.6167 0 17.9221 0 17.0653Z" fill="#1E2F65"/>
<path d="M0 1.55139C0 0.694581 0.671572 0 1.5 0H22.5C23.3284 0 24 0.694581 24 1.55139C24 2.40819 23.3284 3.10278 22.5 3.10278H1.5C0.671572 3.10278 0 2.40819 0 1.55139Z" fill="#1E2F65"/>
<path d="M0 8.79119C0 7.93439 0.671572 7.23981 1.5 7.23981H22.5C23.3284 7.23981 24 7.93439 24 8.79119C24 9.648 23.3284 10.3426 22.5 10.3426H1.5C0.671572 10.3426 0 9.648 0 8.79119Z" fill="#1E2F65"/>
</svg>
